# xmcd
#
# Track frame offsets:
#	150
#	19927
#	36087
#	53997
#	71695
#	89245
#	111810
#	125892
#	141060
#	159067
#	174677
#	191222
#	209170
#	224837
#	248522
#	265977
#	281855
#
# Disc length: 3996
#
# Revision: 2
# Processed by: cddbd v1.5.1PL0 Copyright (c) Steve Scherf et al.
# Submitted via: audiograbber 1.82.02
# Normalized: r1:DSETVAR1
#
DISCID=190f9a11
DTITLE=Various Artist - 21st Century Soul disc 2
DYEAR=1900
DGENRE=
TTITLE0=Toni Braxton - He Wasn't Man Enough
TTITLE1=TLS - No Scrubs
TTITLE2=Melanie C - Never Be The Same Again
TTITLE3=Spice Girls - Holler
TTITLE4=Kelis - Good Stuff
TTITLE5=Lauryn Hill - Doo Wop
TTITLE6=LL Cool J - Phenomenon
TTITLE7=Coolio - 1-2-3-4
TTITLE8=Kaylan - Rock Me All Night
TTITLE9=Peter Andre featuring Warren G - All Night All Right
TTITLE10=PM Dawn - Gotta Be... Movin' On Up
TTITLE11=Deni Hines - Pull Up To The Bumper
TTITLE12=Wookie - Battle
TTITLE13=Architects - Body Groove
TTITLE14=Jungle Brothers - Get Down
TTITLE15=Shanks and Bigfoot - Sing A Long
TTITLE16=Sweet Female Attitude - Flowers
EXTD=
EXTT0=
EXTT1=
EXTT2=
EXTT3=
EXTT4=
EXTT5=
EXTT6=
EXTT7=
EXTT8=
EXTT9=
EXTT10=
EXTT11=
EXTT12=
EXTT13=
EXTT14=
EXTT15=
EXTT16=
PLAYORDER=
